<svg width="40" height="40" viewBox="0 0 40 40" fill="none" xmlns="http://www.w3.org/2000/svg">
<path d="M8.16666 15C8.16666 12.6006 8.16984 10.9519 8.33634 9.71351C8.49703 8.51828 8.7847 7.93221 9.19178 7.52513C9.59886 7.11805 10.1849 6.83038 11.3802 6.66968C12.6186 6.50319 14.2672 6.5 16.6667 6.5H23.3333C25.7328 6.5 27.3814 6.50319 28.6198 6.66968C29.815 6.83038 30.4011 7.11805 30.8082 7.52513C31.2153 7.93221 31.5029 8.51828 31.6636 9.71351C31.8301 10.9519 31.8333 12.6006 31.8333 15V26.3793C31.8333 28.6664 31.8294 30.2102 31.6732 31.2791C31.5161 32.3538 31.2759 32.4209 31.2706 32.4224L31.2705 32.4224L31.2704 32.4225C31.2659 32.4258 31.0647 32.5732 30.1226 32.0327C29.1857 31.4952 27.9693 30.5445 26.1709 29.1315L25.0455 28.2472L24.9781 28.1942C24.0471 27.4627 23.2457 26.8329 22.5298 26.3974C21.7622 25.9304 20.9533 25.5963 20 25.5963C19.0467 25.5963 18.2378 25.9304 17.4701 26.3974C16.7543 26.8329 15.9529 27.4626 15.0219 28.1942L14.9544 28.2472L13.829 29.1315C12.0307 30.5445 10.8143 31.4952 9.87735 32.0327C8.93527 32.5732 8.73411 32.4258 8.7296 32.4225L8.72952 32.4224L8.72943 32.4224C8.72405 32.4209 8.48385 32.3538 8.32678 31.2791C8.17057 30.2102 8.16666 28.6664 8.16666 26.3793V15Z" stroke="white" stroke-width="3"/>
</svg>
