<svg width="52" height="46" viewBox="0 0 52 46" fill="none" xmlns="http://www.w3.org/2000/svg">
<path d="M18.7083 36.7601C18.7083 37.5886 19.3799 38.2601 20.2083 38.2601C21.0368 38.2601 21.7083 37.5886 21.7083 36.7601H18.7083ZM9.125 36.7601C9.125 37.5886 9.79657 38.2601 10.625 38.2601C11.4534 38.2601 12.125 37.5886 12.125 36.7601H9.125ZM7.93257 10.5917L8.90875 11.7306H8.90875L7.93257 10.5917ZM22.9008 10.5917L21.9246 11.7306L22.9008 10.5917ZM24.8174 12.2346L25.7936 11.0957L24.8174 12.2346ZM6.0159 12.2346L5.03971 11.0957L6.0159 12.2346ZM11.625 26.7601H19.2083V23.7601H11.625V26.7601ZM18.7083 26.2601V36.7601H21.7083V26.2601H18.7083ZM9.125 26.2601V36.7601H12.125V26.2601H9.125ZM19.2083 26.7601C18.9322 26.7601 18.7083 26.5363 18.7083 26.2601H21.7083C21.7083 24.8794 20.5891 23.7601 19.2083 23.7601V26.7601ZM11.625 23.7601C10.2443 23.7601 9.125 24.8794 9.125 26.2601H12.125C12.125 26.5363 11.9011 26.7601 11.625 26.7601V23.7601ZM27.3333 20.9661V29.0935H30.3333V20.9661H27.3333ZM21.1667 35.2601H9.66667V38.2601H21.1667V35.2601ZM3.5 29.0935V20.9661H0.5V29.0935H3.5ZM6.99209 13.3735L8.90875 11.7306L6.95638 9.45286L5.03971 11.0957L6.99209 13.3735ZM21.9246 11.7306L23.8412 13.3735L25.7936 11.0957L23.877 9.45286L21.9246 11.7306ZM8.90875 11.7306C10.7239 10.1748 11.9809 9.10096 13.0429 8.39959C14.0697 7.72139 14.7586 7.5 15.4167 7.5V4.5C13.9477 4.5 12.6802 5.0439 11.3896 5.89629C10.1341 6.72549 8.7126 7.94753 6.95638 9.45286L8.90875 11.7306ZM23.877 9.45286C22.1207 7.94753 20.6993 6.72549 19.4438 5.89629C18.1532 5.0439 16.8856 4.5 15.4167 4.5V7.5C16.0748 7.5 16.7636 7.72139 17.7904 8.39959C18.8524 9.10096 20.1094 10.1748 21.9246 11.7306L23.877 9.45286ZM9.66667 35.2601C7.81721 35.2601 6.58102 35.257 5.66033 35.1332C4.78279 35.0152 4.41964 34.8129 4.18342 34.5767L2.0621 36.698C2.94863 37.5846 4.05038 37.9437 5.26059 38.1064C6.42764 38.2633 7.90202 38.2601 9.66667 38.2601V35.2601ZM0.5 29.0935C0.5 30.8581 0.496814 32.3325 0.65372 33.4995C0.816428 34.7098 1.17556 35.8115 2.0621 36.698L4.18342 34.5767C3.94719 34.3405 3.74495 33.9773 3.62697 33.0998C3.50319 32.1791 3.5 30.9429 3.5 29.0935H0.5ZM27.3333 29.0935C27.3333 30.9429 27.3301 32.1791 27.2064 33.0998C27.0884 33.9773 26.8861 34.3405 26.6499 34.5767L28.7712 36.698C29.6578 35.8115 30.0169 34.7098 30.1796 33.4995C30.3365 32.3325 30.3333 30.8581 30.3333 29.0935H27.3333ZM21.1667 38.2601C22.9313 38.2601 24.4057 38.2633 25.5727 38.1064C26.783 37.9437 27.8847 37.5846 28.7712 36.698L26.6499 34.5767C26.4137 34.8129 26.0505 35.0152 25.173 35.1332C24.2523 35.257 23.0161 35.2601 21.1667 35.2601V38.2601ZM30.3333 20.9661C30.3333 18.501 30.3654 16.8038 29.6701 15.292L26.9445 16.5455C27.3013 17.3212 27.3333 18.2264 27.3333 20.9661H30.3333ZM23.8412 13.3735C25.9213 15.1564 26.5878 15.7699 26.9445 16.5455L29.6701 15.292C28.9747 13.7801 27.6653 12.7 25.7936 11.0957L23.8412 13.3735ZM3.5 20.9661C3.5 18.2264 3.53208 17.3212 3.88882 16.5455L1.16328 15.292C0.467919 16.8038 0.5 18.501 0.5 20.9661H3.5ZM5.03971 11.0957C3.16807 12.7 1.85864 13.7801 1.16328 15.292L3.88882 16.5455C4.24556 15.7699 4.912 15.1564 6.99209 13.3735L5.03971 11.0957Z" fill="#33363F"/>
</svg>
