<svg width="94" height="94" viewBox="0 0 94 94" fill="none" xmlns="http://www.w3.org/2000/svg">
<circle cx="47" cy="47" r="47" fill="white"/>
<circle cx="47" cy="47" r="21" fill="#ED6A5A"/>
<path d="M36.6848 49.2524C35.853 47.866 35.853 46.134 36.6848 44.7476V44.7476C36.9387 44.3245 37.3592 44.0282 37.843 43.9314L39.8182 43.5364C39.9359 43.5128 40.0419 43.4497 40.1188 43.3575L43.0042 39.895C44.1868 38.4759 44.7781 37.7664 45.3057 37.9574C45.8334 38.1485 45.8334 39.0721 45.8334 40.9193L45.8334 53.0807C45.8334 54.9279 45.8334 55.8515 45.3057 56.0426C44.7781 56.2336 44.1868 55.5241 43.0042 54.105L40.1188 50.6425C40.0419 50.5503 39.9359 50.4872 39.8182 50.4636L37.843 50.0686C37.3592 49.9718 36.9387 49.6755 36.6848 49.2524V49.2524Z" stroke="white" stroke-width="2"/>
<path d="M50.5 50.5L57.5 43.5" stroke="white" stroke-width="2" stroke-linecap="round"/>
<path d="M57.5 50.5L50.5 43.5" stroke="white" stroke-width="2" stroke-linecap="round"/>
</svg>
