<svg width="40" height="40" viewBox="0 0 40 40" fill="none" xmlns="http://www.w3.org/2000/svg">
<rect width="40" height="40" stroke="black"/>
<path fill-rule="evenodd" clip-rule="evenodd" d="M31.6311 8.34984C31.2522 8.41724 30.715 8.59355 29.8548 8.88027L15.0338 13.8206C12.6502 14.6151 10.963 15.1798 9.86026 15.7163C8.6735 16.2936 8.65789 16.6065 8.65789 16.6667C8.65789 16.7268 8.6735 17.0397 9.86026 17.6171C10.963 18.1535 12.6502 18.7182 15.0338 19.5127L16.7522 20.0855C16.8056 20.1033 16.8586 20.1209 16.9113 20.1383C17.6824 20.3939 18.368 20.621 18.8735 21.1265C19.379 21.632 19.6062 22.3176 19.8617 23.0887C19.8791 23.1414 19.8967 23.1944 19.9145 23.2478L20.4873 24.9663C21.2818 27.3498 21.8465 29.037 22.3829 30.1398C22.9603 31.3265 23.2732 31.3421 23.3333 31.3421C23.3935 31.3421 23.7064 31.3265 24.2837 30.1398C24.8202 29.037 25.3849 27.3498 26.1794 24.9663L31.1197 10.1452C31.4065 9.28501 31.5828 8.74778 31.6502 8.36888C31.6516 8.36099 31.6529 8.35331 31.6542 8.34585C31.6467 8.34711 31.639 8.34843 31.6311 8.34984ZM31.8901 8.32672C31.8899 8.32691 31.8866 8.32664 31.8808 8.32537C31.8874 8.32591 31.8903 8.32654 31.8901 8.32672ZM31.6746 8.11914C31.6734 8.1134 31.6731 8.11011 31.6733 8.10991C31.6735 8.1097 31.6741 8.11256 31.6746 8.11914ZM31.2808 6.38075C31.8318 6.28273 32.5864 6.25355 33.1664 6.8336C33.7465 7.41366 33.7173 8.16817 33.6193 8.71916C33.5229 9.2606 33.2965 9.93974 33.041 10.706L33.0171 10.7776L28.0767 25.5987L28.0497 25.6799C27.2882 27.9646 26.6834 29.7788 26.0822 31.0147C25.5148 32.1811 24.7147 33.3421 23.3333 33.3421C21.952 33.3421 21.1519 32.1811 20.5845 31.0147C19.9832 29.7787 19.3785 27.9645 18.6169 25.6797L18.5899 25.5987L18.0171 23.8803C17.675 22.854 17.587 22.6684 17.4593 22.5407C17.3316 22.413 17.146 22.325 16.1197 21.9829L14.4013 21.4101L14.3202 21.3831C12.0355 20.6215 10.2213 20.0168 8.98534 19.4155C7.81889 18.8481 6.65789 18.0481 6.65789 16.6667C6.65789 15.2853 7.81889 14.4853 8.98534 13.9178C10.2213 13.3166 12.0355 12.7118 14.3202 11.9503L14.4013 11.9233L29.2224 6.9829L29.294 6.95903C30.0603 6.70352 30.7394 6.47707 31.2808 6.38075Z" fill="black"/>
<path d="M29.8548 8.88027L30.0129 9.35461L29.8548 8.88027ZM31.6311 8.34984L31.7187 8.84211L31.7187 8.84211L31.6311 8.34984ZM15.0338 13.8206L14.8756 13.3463H14.8756L15.0338 13.8206ZM9.86026 15.7163L10.079 16.1659L9.86026 15.7163ZM9.86026 17.6171L10.079 17.1674H10.079L9.86026 17.6171ZM15.0338 19.5127L15.1919 19.0384L15.0338 19.5127ZM16.9113 20.1383L16.754 20.613L16.9113 20.1383ZM19.8617 23.0887L19.387 23.246L19.387 23.246L19.8617 23.0887ZM19.9145 23.2478L19.4401 23.4059L19.4401 23.4059L19.9145 23.2478ZM20.4873 24.9663L20.0129 25.1244L20.4873 24.9663ZM22.3829 30.1398L21.9333 30.3585L22.3829 30.1398ZM24.2837 30.1398L23.8341 29.921L23.8341 29.921L24.2837 30.1398ZM26.1794 24.9663L25.705 24.8081L26.1794 24.9663ZM31.1197 10.1452L31.5941 10.3033V10.3033L31.1197 10.1452ZM31.6502 8.36888L32.1424 8.45645L32.1425 8.45639L31.6502 8.36888ZM31.6542 8.34585L32.1472 8.42886L32.2638 7.73609L31.5711 7.8528L31.6542 8.34585ZM31.8808 8.32537L31.9216 7.82703L31.7733 8.81366L31.8808 8.32537ZM31.6746 8.11914L31.1863 8.22666L32.173 8.07838L31.6746 8.11914ZM31.6733 8.10991L32.0473 8.44177L32.0475 8.44155L31.6733 8.10991ZM33.1664 6.8336L33.52 6.48005V6.48005L33.1664 6.8336ZM31.2808 6.38075L31.1933 5.88848L31.2808 6.38075ZM33.6193 8.71916L33.127 8.63159L33.127 8.63159L33.6193 8.71916ZM33.041 10.706L32.5667 10.5479L32.5666 10.5479L33.041 10.706ZM33.0171 10.7776L32.5428 10.6195L32.5428 10.6195L33.0171 10.7776ZM28.0767 25.5987L27.6024 25.4406L27.6024 25.4406L28.0767 25.5987ZM28.0497 25.6799L27.5753 25.5218V25.5218L28.0497 25.6799ZM26.0822 31.0147L25.6326 30.7959L25.6326 30.7959L26.0822 31.0147ZM20.5845 31.0147L20.1348 31.2334L20.5845 31.0147ZM18.6169 25.6797L18.1426 25.8378L18.1426 25.8378L18.6169 25.6797ZM18.5899 25.5987L19.0643 25.4406L19.0643 25.4406L18.5899 25.5987ZM18.0171 23.8803L17.5428 24.0384L18.0171 23.8803ZM17.4593 22.5407L17.1057 22.8943L17.1058 22.8943L17.4593 22.5407ZM16.1197 21.9829L16.2779 21.5086H16.2779L16.1197 21.9829ZM14.4013 21.4101L14.5594 20.9357L14.5594 20.9357L14.4013 21.4101ZM14.3202 21.3831L14.1621 21.8574L14.1621 21.8574L14.3202 21.3831ZM8.98534 19.4155L9.20407 18.9659H9.20407L8.98534 19.4155ZM8.98534 13.9178L8.76661 13.4682L8.76661 13.4682L8.98534 13.9178ZM14.3202 11.9503L14.4784 12.4246H14.4784L14.3202 11.9503ZM14.4013 11.9233L14.5594 12.3976L14.5594 12.3976L14.4013 11.9233ZM29.2224 6.9829L29.3805 7.45725L29.3805 7.45723L29.2224 6.9829ZM29.294 6.95903L29.4521 7.43336L29.4521 7.43336L29.294 6.95903ZM30.0129 9.35461C30.8901 9.06224 31.3848 8.9015 31.7187 8.84211L31.5436 7.85756C31.1196 7.93298 30.5399 8.12485 29.6967 8.40593L30.0129 9.35461ZM15.1919 14.295L30.0129 9.35461L29.6967 8.40593L14.8756 13.3463L15.1919 14.295ZM10.079 16.1659C11.1447 15.6475 12.793 15.0946 15.1919 14.295L14.8756 13.3463C12.5075 14.1357 10.7812 14.7122 9.64153 15.2667L10.079 16.1659ZM9.15789 16.6667C9.15789 16.7004 9.15169 16.74 9.13865 16.7705C9.12963 16.7916 9.1298 16.7783 9.17399 16.7325C9.26766 16.6353 9.50869 16.4433 10.079 16.1659L9.64153 15.2667C9.02507 15.5666 8.66492 15.8197 8.45409 16.0384C8.34603 16.1505 8.26813 16.2628 8.2191 16.3775C8.16604 16.5017 8.15789 16.6029 8.15789 16.6667H9.15789ZM10.079 17.1674C9.50869 16.89 9.26765 16.698 9.17399 16.6009C9.1298 16.5551 9.12963 16.5418 9.13865 16.5629C9.15169 16.5934 9.15789 16.633 9.15789 16.6667H8.15789C8.15789 16.7304 8.16604 16.8317 8.2191 16.9558C8.26813 17.0706 8.34603 17.1829 8.45409 17.295C8.66492 17.5136 9.02507 17.7668 9.64153 18.0667L10.079 17.1674ZM15.1919 19.0384C12.793 18.2387 11.1447 17.6859 10.079 17.1674L9.64153 18.0667C10.7812 18.6211 12.5075 19.1977 14.8756 19.9871L15.1919 19.0384ZM16.9103 19.6112L15.1919 19.0384L14.8756 19.9871L16.5941 20.5599L16.9103 19.6112ZM17.0685 19.6637C17.0158 19.6463 16.9632 19.6288 16.9103 19.6112L16.5941 20.5599C16.648 20.5778 16.7014 20.5956 16.754 20.613L17.0685 19.6637ZM19.2271 20.7729C18.6226 20.1685 17.8138 19.9106 17.0685 19.6637L16.754 20.613C17.5511 20.8771 18.1134 21.0735 18.52 21.48L19.2271 20.7729ZM20.3363 22.9315C20.0894 22.1862 19.8315 21.3774 19.2271 20.7729L18.52 21.48C18.9265 21.8866 19.1229 22.4489 19.387 23.246L20.3363 22.9315ZM20.3888 23.0897C20.3712 23.0368 20.3537 22.9842 20.3363 22.9315L19.387 23.246C19.4045 23.2986 19.4222 23.352 19.4401 23.4059L20.3888 23.0897ZM20.9616 24.8081L20.3888 23.0897L19.4401 23.4059L20.0129 25.1244L20.9616 24.8081ZM22.8326 29.921C22.3141 28.8553 21.7613 27.207 20.9616 24.8081L20.0129 25.1244C20.8023 27.4925 21.3789 29.2188 21.9333 30.3585L22.8326 29.921ZM23.3333 30.8421C23.367 30.8421 23.4066 30.8483 23.4371 30.8614C23.4582 30.8704 23.445 30.8702 23.3991 30.826C23.302 30.7324 23.11 30.4913 22.8326 29.921L21.9333 30.3585C22.2332 30.9749 22.4864 31.3351 22.705 31.5459C22.8171 31.654 22.9294 31.7319 23.0442 31.7809C23.1683 31.834 23.2696 31.8421 23.3333 31.8421V30.8421ZM23.8341 29.921C23.5567 30.4913 23.3647 30.7324 23.2675 30.826C23.2217 30.8702 23.2084 30.8704 23.2295 30.8614C23.2601 30.8483 23.2996 30.8421 23.3333 30.8421V31.8421C23.3971 31.8421 23.4984 31.834 23.6225 31.7809C23.7372 31.7319 23.8495 31.654 23.9616 31.5459C24.1803 31.3351 24.4335 30.9749 24.7333 30.3585L23.8341 29.921ZM25.705 24.8081C24.9054 27.2071 24.3526 28.8553 23.8341 29.921L24.7333 30.3585C25.2878 29.2188 25.8643 27.4925 26.6537 25.1244L25.705 24.8081ZM30.6454 9.98707L25.705 24.8081L26.6537 25.1244L31.5941 10.3033L30.6454 9.98707ZM31.1579 8.28131C31.0985 8.6152 30.9378 9.10995 30.6454 9.98707L31.5941 10.3033C31.8752 9.46007 32.067 8.88037 32.1424 8.45645L31.1579 8.28131ZM31.1611 8.26284C31.1601 8.26881 31.159 8.27498 31.1579 8.28136L32.1425 8.45639C32.1441 8.447 32.1457 8.43782 32.1472 8.42886L31.1611 8.26284ZM31.7187 8.84211C31.7251 8.84097 31.7313 8.8399 31.7372 8.8389L31.5711 7.8528C31.5621 7.85431 31.5529 7.8559 31.5436 7.85757L31.7187 8.84211ZM31.5584 7.95259C31.6205 7.89752 31.6814 7.87135 31.7099 7.86035C31.7427 7.84766 31.7704 7.84098 31.787 7.83748C31.82 7.83053 31.8465 7.82851 31.8584 7.82776C31.8841 7.82614 31.9042 7.82693 31.912 7.82728C31.9306 7.82812 31.945 7.82985 31.9518 7.83073C31.9675 7.83277 31.98 7.83521 31.9884 7.83708L31.7733 8.81366C31.7875 8.81679 31.8045 8.82001 31.8233 8.82245C31.8317 8.82353 31.8473 8.82537 31.8667 8.82625C31.875 8.82663 31.8954 8.82742 31.9214 8.82577C31.9334 8.82502 31.96 8.82299 31.993 8.81603C32 8.81455 32.1158 8.79483 32.2218 8.70086L31.5584 7.95259ZM31.8401 8.8237C31.8348 8.82327 31.823 8.8222 31.8071 8.81959C31.8017 8.8187 31.7826 8.81556 31.7584 8.80897C31.7532 8.80756 31.7133 8.79724 31.6668 8.77403C31.6583 8.76978 31.568 8.72804 31.4937 8.63144C31.4503 8.57499 31.3814 8.45862 31.391 8.29701C31.4011 8.12734 31.491 8.01237 31.5584 7.95259L32.2218 8.70086C32.2892 8.64106 32.3791 8.52608 32.3892 8.3564C32.3988 8.19478 32.3299 8.07839 32.2865 8.02193C32.2122 7.9253 32.1219 7.88352 32.1133 7.87924C32.0666 7.85596 32.0265 7.84556 32.0209 7.84405C31.996 7.83728 31.9759 7.83391 31.9689 7.83277C31.95 7.82966 31.9334 7.828 31.9216 7.82703L31.8401 8.8237ZM32.1629 8.01162C32.1648 8.02009 32.1672 8.03254 32.1693 8.04829C32.1702 8.05506 32.1719 8.06948 32.1727 8.08812C32.1731 8.09593 32.1739 8.11613 32.1722 8.14195C32.1715 8.15385 32.1694 8.1804 32.1624 8.21345C32.1589 8.23015 32.1522 8.25785 32.1395 8.29069C32.1284 8.31921 32.1022 8.37987 32.0473 8.44177L31.2993 7.77805C31.2055 7.88379 31.1856 7.99919 31.1841 8.00651C31.1771 8.03964 31.175 8.06628 31.1743 8.0783C31.1726 8.10437 31.1734 8.1249 31.1737 8.13314C31.1746 8.15264 31.1765 8.16827 31.1776 8.17661C31.18 8.19548 31.1832 8.21245 31.1863 8.22666L32.1629 8.01162ZM32.0475 8.44155C31.9884 8.50819 31.8749 8.59747 31.7068 8.60877C31.5458 8.6196 31.4289 8.55205 31.3712 8.50832C31.2732 8.43396 31.2308 8.3428 31.2264 8.33416C31.2029 8.28724 31.1925 8.24693 31.1911 8.24173C31.1844 8.21738 31.1813 8.19819 31.1804 8.19275C31.1778 8.17685 31.1767 8.16504 31.1763 8.1599L32.173 8.07838C32.172 8.06666 32.1704 8.05013 32.1673 8.03121C32.1661 8.02426 32.1627 8.00398 32.1559 7.97894C32.1544 7.9734 32.1439 7.93285 32.1203 7.88579C32.1159 7.87708 32.0735 7.78587 31.9754 7.71149C31.9177 7.66775 31.8008 7.6002 31.6398 7.61102C31.4717 7.62232 31.3582 7.71161 31.2991 7.77826L32.0475 8.44155ZM33.52 6.48005C32.758 5.71812 31.7828 5.78361 31.1933 5.88848L31.3684 6.87302C31.8809 6.78185 32.4147 6.78897 32.8129 7.18716L33.52 6.48005ZM34.1115 8.80673C34.2164 8.21724 34.2819 7.24198 33.52 6.48005L32.8129 7.18716C33.211 7.58534 33.2182 8.11909 33.127 8.63159L34.1115 8.80673ZM33.5153 10.8642C33.7663 10.1113 34.0073 9.39239 34.1115 8.80673L33.127 8.63159C33.0385 9.12882 32.8266 9.76814 32.5667 10.5479L33.5153 10.8642ZM33.4914 10.9358L33.5153 10.8642L32.5666 10.5479L32.5428 10.6195L33.4914 10.9358ZM28.5511 25.7568L33.4914 10.9358L32.5428 10.6195L27.6024 25.4406L28.5511 25.7568ZM28.524 25.838L28.5511 25.7568L27.6024 25.4406L27.5753 25.5218L28.524 25.838ZM26.5318 31.2334C27.1509 29.9607 27.7673 28.1084 28.524 25.838L27.5753 25.5218C26.809 27.8207 26.2159 29.5968 25.6326 30.7959L26.5318 31.2334ZM23.3333 33.8421C25.0463 33.8421 25.968 32.3924 26.5318 31.2334L25.6326 30.7959C25.0615 31.9698 24.3831 32.8421 23.3333 32.8421V33.8421ZM20.1348 31.2334C20.6987 32.3924 21.6204 33.8421 23.3333 33.8421V32.8421C22.2835 32.8421 21.6052 31.9698 21.0341 30.7959L20.1348 31.2334ZM18.1426 25.8378C18.8994 28.1083 19.5157 29.9607 20.1348 31.2334L21.0341 30.7959C20.4507 29.5968 19.8576 27.8206 19.0913 25.5216L18.1426 25.8378ZM18.1156 25.7568L18.1426 25.8378L19.0913 25.5216L19.0643 25.4406L18.1156 25.7568ZM17.5428 24.0384L18.1156 25.7568L19.0643 25.4406L18.4914 23.7222L17.5428 24.0384ZM17.1058 22.8943C17.106 22.8945 17.1293 22.9077 17.1974 23.0685C17.2693 23.2382 17.371 23.523 17.5428 24.0384L18.4914 23.7222C18.3211 23.2112 18.2078 22.8901 18.1182 22.6786C18.0248 22.458 17.9403 22.3146 17.8129 22.1872L17.1058 22.8943ZM15.9616 22.4572C16.477 22.629 16.7618 22.7307 16.9315 22.8026C17.0923 22.8707 17.1055 22.894 17.1057 22.8943L17.8129 22.1872C17.6854 22.0597 17.542 21.9752 17.3215 21.8818C17.1099 21.7922 16.7888 21.6789 16.2779 21.5086L15.9616 22.4572ZM14.2432 21.8844L15.9616 22.4572L16.2779 21.5086L14.5594 20.9357L14.2432 21.8844ZM14.1621 21.8574L14.2432 21.8844L14.5594 20.9357L14.4783 20.9087L14.1621 21.8574ZM8.76661 19.8652C10.0393 20.4843 11.8917 21.1006 14.1621 21.8574L14.4783 20.9087C12.1793 20.1424 10.4032 19.5493 9.20407 18.9659L8.76661 19.8652ZM6.15789 16.6667C6.15789 18.3796 7.60759 19.3013 8.76661 19.8652L9.20407 18.9659C8.03019 18.3949 7.15789 17.7165 7.15789 16.6667H6.15789ZM8.76661 13.4682C7.60759 14.032 6.15789 14.9537 6.15789 16.6667H7.15789C7.15789 15.6169 8.03019 14.9385 9.20407 14.3674L8.76661 13.4682ZM14.1621 11.4759C11.8917 12.2327 10.0393 12.8491 8.76661 13.4682L9.20407 14.3674C10.4032 13.7841 12.1793 13.1909 14.4784 12.4246L14.1621 11.4759ZM14.2432 11.4489L14.1621 11.4759L14.4784 12.4246L14.5594 12.3976L14.2432 11.4489ZM29.0643 6.50856L14.2432 11.4489L14.5594 12.3976L29.3805 7.45725L29.0643 6.50856ZM29.1358 6.4847L29.0642 6.50857L29.3805 7.45723L29.4521 7.43336L29.1358 6.4847ZM31.1933 5.88848C30.6076 5.99266 29.8887 6.23367 29.1358 6.4847L29.4521 7.43336C30.2319 7.17336 30.8712 6.96147 31.3684 6.87302L31.1933 5.88848Z" fill="black"/>
</svg>
