<svg width="40" height="40" viewBox="0 0 40 40" fill="none" xmlns="http://www.w3.org/2000/svg">
<path fill-rule="evenodd" clip-rule="evenodd" d="M31.6311 8.34982C31.2522 8.41723 30.715 8.59353 29.8548 8.88025L15.0338 13.8206C12.6502 14.6151 10.963 15.1798 9.86027 15.7163C8.67351 16.2936 8.6579 16.6065 8.6579 16.6667C8.6579 16.7268 8.67351 17.0397 9.86027 17.6171C10.963 18.1535 12.6502 18.7182 15.0338 19.5127L16.7522 20.0855C16.8056 20.1033 16.8586 20.1209 16.9113 20.1383C17.6825 20.3938 18.368 20.621 18.8735 21.1265C19.379 21.632 19.6062 22.3175 19.8617 23.0887C19.8791 23.1414 19.8967 23.1944 19.9145 23.2478L20.4873 24.9662C21.2818 27.3498 21.8465 29.037 22.3829 30.1397C22.9603 31.3265 23.2732 31.3421 23.3333 31.3421C23.3935 31.3421 23.7064 31.3265 24.2837 30.1397C24.8202 29.037 25.3849 27.3498 26.1794 24.9662L31.1197 10.1452C31.4065 9.28499 31.5828 8.74777 31.6502 8.36886C31.6516 8.36098 31.6529 8.3533 31.6542 8.34583C31.6467 8.34709 31.639 8.34842 31.6311 8.34982ZM31.8901 8.32671C31.8899 8.32689 31.8866 8.32662 31.8809 8.32535C31.8874 8.32589 31.8903 8.32653 31.8901 8.32671ZM31.6746 8.11913C31.6734 8.11338 31.6731 8.1101 31.6733 8.10989C31.6735 8.10969 31.6741 8.11255 31.6746 8.11913ZM31.2809 6.38073C31.8319 6.28272 32.5864 6.25353 33.1664 6.83359C33.7465 7.41364 33.7173 8.16815 33.6193 8.71915C33.5229 9.26059 33.2965 9.93972 33.041 10.706L33.0171 10.7776L28.0768 25.5987L28.0497 25.6799C27.2882 27.9646 26.6834 29.7788 26.0822 31.0147C25.5148 32.1811 24.7147 33.3421 23.3333 33.3421C21.952 33.3421 21.1519 32.1811 20.5845 31.0147C19.9832 29.7787 19.3785 27.9644 18.6169 25.6797L18.5899 25.5987L18.0171 23.8803C17.675 22.854 17.587 22.6684 17.4593 22.5407C17.3316 22.413 17.146 22.325 16.1197 21.9829L14.4013 21.4101L14.3202 21.3831C12.0355 20.6215 10.2213 20.0168 8.98535 19.4155C7.8189 18.8481 6.6579 18.048 6.6579 16.6667C6.6579 15.2853 7.8189 14.4852 8.98535 13.9178C10.2213 13.3165 12.0355 12.7118 14.3202 11.9503L14.4013 11.9232L29.2224 6.98289L29.294 6.95902C30.0603 6.7035 30.7394 6.47705 31.2809 6.38073Z" fill="#ED6A5A"/>
<path d="M29.8548 8.88025L30.013 9.3546L29.8548 8.88025ZM31.6311 8.34982L31.7187 8.84209L31.7187 8.84209L31.6311 8.34982ZM15.0338 13.8206L14.8757 13.3463H14.8757L15.0338 13.8206ZM9.86027 15.7163L10.079 16.1659L9.86027 15.7163ZM9.86027 17.6171L10.079 17.1674H10.079L9.86027 17.6171ZM15.0338 19.5127L15.1919 19.0384L15.0338 19.5127ZM16.9113 20.1383L16.754 20.613L16.9113 20.1383ZM19.8617 23.0887L19.387 23.246L19.387 23.246L19.8617 23.0887ZM19.9145 23.2478L19.4401 23.4059L19.4401 23.4059L19.9145 23.2478ZM20.4873 24.9662L20.013 25.1243L20.4873 24.9662ZM22.3829 30.1397L21.9333 30.3585L22.3829 30.1397ZM24.2837 30.1397L23.8341 29.921L23.8341 29.921L24.2837 30.1397ZM26.1794 24.9662L25.705 24.8081L26.1794 24.9662ZM31.1197 10.1452L31.5941 10.3033V10.3033L31.1197 10.1452ZM31.6502 8.36886L32.1425 8.45643L32.1425 8.45638L31.6502 8.36886ZM31.6542 8.34583L32.1472 8.42884L32.2639 7.73608L31.5711 7.85278L31.6542 8.34583ZM31.8809 8.32535L31.9216 7.82702L31.7733 8.81364L31.8809 8.32535ZM31.6746 8.11913L31.1863 8.22664L32.173 8.07837L31.6746 8.11913ZM31.6733 8.10989L32.0473 8.44175L32.0475 8.44154L31.6733 8.10989ZM33.1664 6.83359L33.52 6.48003V6.48003L33.1664 6.83359ZM31.2809 6.38073L31.1933 5.88846L31.2809 6.38073ZM33.6193 8.71915L33.127 8.63157L33.127 8.63158L33.6193 8.71915ZM33.041 10.706L32.5667 10.5479L32.5667 10.5479L33.041 10.706ZM33.0171 10.7776L32.5428 10.6195L32.5428 10.6195L33.0171 10.7776ZM28.0768 25.5987L27.6024 25.4406L27.6024 25.4406L28.0768 25.5987ZM28.0497 25.6799L27.5753 25.5218V25.5218L28.0497 25.6799ZM26.0822 31.0147L25.6326 30.7959L25.6326 30.7959L26.0822 31.0147ZM20.5845 31.0147L20.1349 31.2334L20.5845 31.0147ZM18.6169 25.6797L18.1426 25.8378L18.1426 25.8378L18.6169 25.6797ZM18.5899 25.5987L19.0643 25.4406L19.0643 25.4406L18.5899 25.5987ZM18.0171 23.8803L17.5428 24.0384L18.0171 23.8803ZM17.4593 22.5407L17.1058 22.8942L17.1058 22.8942L17.4593 22.5407ZM16.1197 21.9829L16.2779 21.5085H16.2779L16.1197 21.9829ZM14.4013 21.4101L14.5594 20.9357L14.5594 20.9357L14.4013 21.4101ZM14.3202 21.3831L14.1621 21.8574L14.1621 21.8574L14.3202 21.3831ZM8.98535 19.4155L9.20408 18.9659H9.20408L8.98535 19.4155ZM8.98535 13.9178L8.76662 13.4682L8.76662 13.4682L8.98535 13.9178ZM14.3202 11.9503L14.4784 12.4246H14.4784L14.3202 11.9503ZM14.4013 11.9232L14.5594 12.3976L14.5594 12.3976L14.4013 11.9232ZM29.2224 6.98289L29.3805 7.45723L29.3805 7.45722L29.2224 6.98289ZM29.294 6.95902L29.4521 7.43335L29.4521 7.43334L29.294 6.95902ZM30.013 9.3546C30.8901 9.06222 31.3848 8.90149 31.7187 8.84209L31.5436 7.85755C31.1197 7.93296 30.54 8.12484 29.6967 8.40591L30.013 9.3546ZM15.1919 14.295L30.013 9.3546L29.6967 8.40591L14.8757 13.3463L15.1919 14.295ZM10.079 16.1659C11.1447 15.6474 12.793 15.0946 15.1919 14.295L14.8757 13.3463C12.5075 14.1357 10.7812 14.7122 9.64154 15.2666L10.079 16.1659ZM9.1579 16.6667C9.1579 16.7004 9.1517 16.7399 9.13865 16.7705C9.12964 16.7916 9.12981 16.7783 9.174 16.7324C9.26766 16.6353 9.5087 16.4433 10.079 16.1659L9.64154 15.2666C9.02508 15.5665 8.66493 15.8197 8.45409 16.0384C8.34604 16.1505 8.26814 16.2628 8.21911 16.3775C8.16605 16.5016 8.1579 16.6029 8.1579 16.6667H9.1579ZM10.079 17.1674C9.5087 16.89 9.26766 16.698 9.174 16.6009C9.12981 16.555 9.12964 16.5418 9.13865 16.5629C9.1517 16.5934 9.1579 16.633 9.1579 16.6667H8.1579C8.1579 16.7304 8.16605 16.8317 8.21911 16.9558C8.26814 17.0706 8.34604 17.1829 8.45409 17.2949C8.66493 17.5136 9.02508 17.7668 9.64154 18.0667L10.079 17.1674ZM15.1919 19.0384C12.793 18.2387 11.1447 17.6859 10.079 17.1674L9.64154 18.0667C10.7812 18.6211 12.5075 19.1977 14.8757 19.9871L15.1919 19.0384ZM16.9103 19.6112L15.1919 19.0384L14.8757 19.9871L16.5941 20.5599L16.9103 19.6112ZM17.0685 19.6637C17.0158 19.6462 16.9632 19.6288 16.9103 19.6112L16.5941 20.5599C16.648 20.5778 16.7015 20.5955 16.754 20.613L17.0685 19.6637ZM19.2271 20.7729C18.6226 20.1685 17.8138 19.9106 17.0685 19.6637L16.754 20.613C17.5511 20.8771 18.1134 21.0735 18.52 21.48L19.2271 20.7729ZM20.3363 22.9315C20.0894 22.1862 19.8315 21.3774 19.2271 20.7729L18.52 21.48C18.9265 21.8866 19.1229 22.4489 19.387 23.246L20.3363 22.9315ZM20.3888 23.0897C20.3712 23.0368 20.3538 22.9842 20.3363 22.9315L19.387 23.246C19.4045 23.2985 19.4222 23.352 19.4401 23.4059L20.3888 23.0897ZM20.9616 24.8081L20.3888 23.0897L19.4401 23.4059L20.013 25.1243L20.9616 24.8081ZM22.8326 29.921C22.3141 28.8553 21.7613 27.207 20.9616 24.8081L20.013 25.1243C20.8023 27.4925 21.3789 29.2188 21.9333 30.3585L22.8326 29.921ZM23.3333 30.8421C23.367 30.8421 23.4066 30.8483 23.4371 30.8613C23.4582 30.8704 23.445 30.8702 23.3991 30.826C23.302 30.7323 23.11 30.4913 22.8326 29.921L21.9333 30.3585C22.2332 30.9749 22.4864 31.3351 22.7051 31.5459C22.8171 31.654 22.9294 31.7319 23.0442 31.7809C23.1683 31.834 23.2696 31.8421 23.3333 31.8421V30.8421ZM23.8341 29.921C23.5567 30.4913 23.3647 30.7323 23.2676 30.826C23.2217 30.8702 23.2084 30.8704 23.2295 30.8613C23.2601 30.8483 23.2997 30.8421 23.3333 30.8421V31.8421C23.3971 31.8421 23.4984 31.834 23.6225 31.7809C23.7372 31.7319 23.8496 31.654 23.9616 31.5459C24.1803 31.3351 24.4335 30.9749 24.7334 30.3585L23.8341 29.921ZM25.705 24.8081C24.9054 27.207 24.3526 28.8553 23.8341 29.921L24.7334 30.3585C25.2878 29.2188 25.8644 27.4925 26.6537 25.1244L25.705 24.8081ZM30.6454 9.98705L25.705 24.8081L26.6537 25.1244L31.5941 10.3033L30.6454 9.98705ZM31.1579 8.28129C31.0985 8.61518 30.9378 9.10993 30.6454 9.98705L31.5941 10.3033C31.8752 9.46005 32.067 8.88035 32.1425 8.45643L31.1579 8.28129ZM31.1611 8.26282C31.1601 8.26879 31.159 8.27497 31.1579 8.28135L32.1425 8.45638C32.1441 8.44699 32.1457 8.43781 32.1472 8.42884L31.1611 8.26282ZM31.7187 8.84209C31.7251 8.84096 31.7313 8.83989 31.7372 8.83888L31.5711 7.85278C31.5621 7.85429 31.5529 7.85588 31.5436 7.85755L31.7187 8.84209ZM31.5584 7.95257C31.6205 7.89751 31.6814 7.87133 31.7099 7.86033C31.7427 7.84765 31.7704 7.84097 31.787 7.83746C31.82 7.83052 31.8465 7.8285 31.8584 7.82775C31.8841 7.82612 31.9042 7.82691 31.912 7.82726C31.9306 7.82811 31.945 7.82984 31.9518 7.83071C31.9675 7.83275 31.98 7.8352 31.9884 7.83706L31.7733 8.81364C31.7875 8.81678 31.8045 8.81999 31.8234 8.82243C31.8317 8.82351 31.8473 8.82536 31.8667 8.82624C31.875 8.82661 31.8954 8.8274 31.9214 8.82576C31.9334 8.825 31.96 8.82297 31.993 8.81601C32.0001 8.81453 32.1158 8.79482 32.2218 8.70084L31.5584 7.95257ZM31.8401 8.82369C31.8348 8.82326 31.823 8.82218 31.8071 8.81958C31.8017 8.81868 31.7826 8.81554 31.7584 8.80896C31.7532 8.80754 31.7133 8.79722 31.6668 8.77402C31.6583 8.76977 31.568 8.72803 31.4937 8.63143C31.4503 8.57498 31.3814 8.4586 31.391 8.29699C31.4011 8.12732 31.491 8.01236 31.5584 7.95257L32.2218 8.70084C32.2893 8.64105 32.3791 8.52607 32.3892 8.35639C32.3989 8.19476 32.3299 8.07838 32.2865 8.02191C32.2122 7.92528 32.1219 7.88351 32.1133 7.87922C32.0666 7.85594 32.0265 7.84554 32.0209 7.84403C31.9961 7.83726 31.9759 7.83389 31.9689 7.83275C31.95 7.82965 31.9335 7.82799 31.9216 7.82702L31.8401 8.82369ZM32.1629 8.01161C32.1648 8.02007 32.1673 8.03253 32.1693 8.04827C32.1702 8.05505 32.1719 8.06946 32.1727 8.0881C32.1731 8.09592 32.1739 8.11611 32.1722 8.14194C32.1715 8.15384 32.1694 8.18038 32.1624 8.21344C32.1589 8.23013 32.1522 8.25783 32.1395 8.29067C32.1284 8.31919 32.1022 8.37986 32.0473 8.44175L31.2993 7.77803C31.2055 7.88377 31.1856 7.99918 31.1841 8.0065C31.1771 8.03963 31.175 8.06627 31.1743 8.07829C31.1726 8.10435 31.1734 8.12489 31.1738 8.13313C31.1746 8.15262 31.1765 8.16826 31.1776 8.17659C31.18 8.19547 31.1832 8.21243 31.1863 8.22664L32.1629 8.01161ZM32.0475 8.44154C31.9884 8.50818 31.8749 8.59746 31.7069 8.60876C31.5458 8.61958 31.4289 8.55203 31.3712 8.50831C31.2732 8.43394 31.2308 8.34279 31.2265 8.33414C31.2029 8.28722 31.1925 8.24692 31.1911 8.24172C31.1844 8.21737 31.1813 8.19817 31.1804 8.19274C31.1778 8.17684 31.1767 8.16503 31.1763 8.15988L32.173 8.07837C32.172 8.06665 32.1704 8.05012 32.1673 8.03119C32.1661 8.02425 32.1628 8.00396 32.1559 7.97893C32.1544 7.97339 32.1439 7.93284 32.1203 7.88578C32.1159 7.87706 32.0735 7.78586 31.9754 7.71147C31.9178 7.66774 31.8008 7.60018 31.6398 7.61101C31.4717 7.62231 31.3582 7.71159 31.2991 7.77825L32.0475 8.44154ZM33.52 6.48003C32.758 5.7181 31.7828 5.7836 31.1933 5.88846L31.3684 6.87301C31.8809 6.78184 32.4147 6.78896 32.8129 7.18714L33.52 6.48003ZM34.1115 8.80672C34.2164 8.21723 34.2819 7.24197 33.52 6.48003L32.8129 7.18714C33.211 7.58532 33.2182 8.11908 33.127 8.63157L34.1115 8.80672ZM33.5153 10.8642C33.7663 10.1113 34.0074 9.39237 34.1115 8.80672L33.127 8.63158C33.0385 9.1288 32.8267 9.76812 32.5667 10.5479L33.5153 10.8642ZM33.4914 10.9358L33.5153 10.8642L32.5667 10.5479L32.5428 10.6195L33.4914 10.9358ZM28.5511 25.7568L33.4915 10.9357L32.5428 10.6195L27.6024 25.4406L28.5511 25.7568ZM28.524 25.838L28.5511 25.7568L27.6024 25.4406L27.5753 25.5218L28.524 25.838ZM26.5318 31.2334C27.151 29.9607 27.7673 28.1084 28.524 25.838L27.5753 25.5218C26.8091 27.8207 26.2159 29.5968 25.6326 30.7959L26.5318 31.2334ZM23.3333 33.8421C25.0463 33.8421 25.968 32.3924 26.5318 31.2334L25.6326 30.7959C25.0615 31.9698 24.3832 32.8421 23.3333 32.8421V33.8421ZM20.1349 31.2334C20.6987 32.3924 21.6204 33.8421 23.3333 33.8421V32.8421C22.2835 32.8421 21.6052 31.9698 21.0341 30.7959L20.1349 31.2334ZM18.1426 25.8378C18.8994 28.1083 19.5157 29.9607 20.1349 31.2334L21.0341 30.7959C20.4507 29.5968 19.8576 27.8206 19.0913 25.5216L18.1426 25.8378ZM18.1156 25.7568L18.1426 25.8378L19.0913 25.5216L19.0643 25.4406L18.1156 25.7568ZM17.5428 24.0384L18.1156 25.7568L19.0643 25.4406L18.4915 23.7221L17.5428 24.0384ZM17.1058 22.8942C17.106 22.8945 17.1293 22.9077 17.1974 23.0685C17.2693 23.2382 17.371 23.523 17.5428 24.0384L18.4915 23.7221C18.3212 23.2112 18.2078 22.8901 18.1182 22.6785C18.0248 22.458 17.9403 22.3146 17.8129 22.1871L17.1058 22.8942ZM15.9616 22.4572C16.477 22.629 16.7618 22.7307 16.9315 22.8026C17.0923 22.8707 17.1055 22.894 17.1058 22.8942L17.8129 22.1871C17.6854 22.0597 17.542 21.9752 17.3215 21.8818C17.1099 21.7922 16.7888 21.6789 16.2779 21.5085L15.9616 22.4572ZM14.2432 21.8844L15.9616 22.4572L16.2779 21.5085L14.5594 20.9357L14.2432 21.8844ZM14.1621 21.8574L14.2432 21.8844L14.5594 20.9357L14.4783 20.9087L14.1621 21.8574ZM8.76662 19.8652C10.0393 20.4843 11.8917 21.1006 14.1621 21.8574L14.4783 20.9087C12.1793 20.1424 10.4032 19.5493 9.20408 18.9659L8.76662 19.8652ZM6.1579 16.6667C6.1579 18.3796 7.6076 19.3013 8.76662 19.8652L9.20408 18.9659C8.03019 18.3948 7.1579 17.7165 7.1579 16.6667H6.1579ZM8.76662 13.4682C7.6076 14.032 6.1579 14.9537 6.1579 16.6667H7.1579C7.1579 15.6168 8.03019 14.9385 9.20408 14.3674L8.76662 13.4682ZM14.1621 11.4759C11.8917 12.2327 10.0393 12.849 8.76662 13.4682L9.20408 14.3674C10.4032 13.7841 12.1794 13.1909 14.4784 12.4246L14.1621 11.4759ZM14.2432 11.4489L14.1621 11.4759L14.4784 12.4246L14.5594 12.3976L14.2432 11.4489ZM29.0643 6.50855L14.2432 11.4489L14.5594 12.3976L29.3805 7.45723L29.0643 6.50855ZM29.1358 6.48469L29.0642 6.50856L29.3805 7.45722L29.4521 7.43335L29.1358 6.48469ZM31.1933 5.88846C30.6076 5.99265 29.8887 6.23366 29.1358 6.48469L29.4521 7.43334C30.2319 7.17335 30.8712 6.96146 31.3684 6.87301L31.1933 5.88846Z" fill="#ED6A5A"/>
</svg>
