<svg width="30" height="30" viewBox="0 0 30 30" fill="none" xmlns="http://www.w3.org/2000/svg">
<path d="M12.6797 8.28442C13.663 5.83317 14.1546 4.60754 15 4.60754C15.8454 4.60754 16.337 5.83317 17.3203 8.28442L17.3661 8.39856C17.9216 9.7834 18.1993 10.4758 18.7654 10.8967C19.3314 11.3175 20.0745 11.3841 21.5606 11.5172L21.8293 11.5412C24.2616 11.7591 25.4777 11.868 25.7379 12.6417C25.9982 13.4154 25.095 14.2371 23.2887 15.8805L22.6859 16.429C21.7715 17.2608 21.3143 17.6768 21.1012 18.222C21.0614 18.3237 21.0284 18.4278 21.0023 18.5339C20.8622 19.1022 20.9961 19.7056 21.2638 20.9124L21.3472 21.2881C21.8393 23.506 22.0853 24.615 21.6557 25.0933C21.4952 25.272 21.2866 25.4007 21.0548 25.464C20.4345 25.6332 19.5539 24.9156 17.7928 23.4805C16.6363 22.5382 16.0581 22.067 15.3942 21.961C15.133 21.9193 14.8669 21.9193 14.6058 21.961C13.9419 22.067 13.3637 22.5382 12.2072 23.4805C10.446 24.9156 9.56545 25.6332 8.9452 25.464C8.71343 25.4007 8.50479 25.272 8.34426 25.0933C7.91466 24.615 8.16071 23.506 8.6528 21.2881L8.73615 20.9124C9.00391 19.7056 9.13779 19.1022 8.99772 18.5339C8.97159 18.4278 8.93855 18.3237 8.8988 18.222C8.6857 17.6768 8.22851 17.2608 7.31413 16.429L6.71128 15.8805C4.90497 14.2371 4.00182 13.4154 4.26204 12.6417C4.52227 11.868 5.7384 11.7591 8.17067 11.5412L8.43934 11.5172C9.92548 11.3841 10.6686 11.3175 11.2346 10.8967C11.8007 10.4758 12.0784 9.7834 12.6339 8.39856L12.6797 8.28442Z" stroke="#33363F" stroke-width="2"/>
</svg>
