<svg width="24" height="23" viewBox="0 0 24 23" fill="none" xmlns="http://www.w3.org/2000/svg">
<path d="M9.46169 4.67687C10.4449 2.22562 10.9366 1 11.782 1C12.6274 1 13.119 2.22562 14.1023 4.67687L14.1481 4.79102C14.7035 6.17585 14.9813 6.86827 15.5474 7.28913C16.1134 7.70999 16.8565 7.77654 18.3426 7.90964L18.6113 7.9337C21.0436 8.15153 22.2597 8.26044 22.5199 9.03417C22.7802 9.8079 21.877 10.6296 20.0707 12.2729L19.4678 12.8214C18.5535 13.6533 18.0963 14.0693 17.8832 14.6144C17.8434 14.7161 17.8104 14.8203 17.7843 14.9263C17.6442 15.4946 17.7781 16.098 18.0458 17.3049L18.1292 17.6805C18.6213 19.8985 18.8673 21.0074 18.4377 21.4857C18.2772 21.6645 18.0685 21.7932 17.8368 21.8564C17.2165 22.0257 16.3359 21.3081 14.5747 19.873C13.4183 18.9306 12.84 18.4595 12.1762 18.3535C11.915 18.3118 11.6489 18.3118 11.3878 18.3535C10.7239 18.4595 10.1457 18.9306 8.98922 19.873C7.22803 21.3081 6.34744 22.0257 5.72718 21.8564C5.49541 21.7932 5.28677 21.6645 5.12624 21.4857C4.69665 21.0074 4.94269 19.8985 5.43478 17.6805L5.51813 17.3049C5.78589 16.098 5.91977 15.4946 5.7797 14.9263C5.75357 14.8203 5.72053 14.7161 5.68078 14.6144C5.46769 14.0693 5.01049 13.6533 4.09611 12.8214L3.49326 12.2729C1.68696 10.6296 0.783803 9.8079 1.04403 9.03417C1.30425 8.26044 2.52038 8.15153 4.95265 7.9337L5.22132 7.90964C6.70747 7.77654 7.45054 7.70999 8.0166 7.28913C8.58266 6.86827 8.86041 6.17585 9.4159 4.79102L9.46169 4.67687Z" fill="#ED6A5A" stroke="#ED6A5A" stroke-width="2"/>
</svg>
