<svg width="29" height="29" viewBox="0 0 29 29" fill="none" xmlns="http://www.w3.org/2000/svg">
<path fill-rule="evenodd" clip-rule="evenodd" d="M25.6311 3.34984C25.2522 3.41724 24.715 3.59355 23.8548 3.88027L9.03376 8.82063C6.65024 9.61514 4.96298 10.1798 3.86026 10.7163C2.6735 11.2936 2.65789 11.6065 2.65789 11.6667C2.65789 11.7268 2.6735 12.0397 3.86026 12.6171C4.96297 13.1535 6.65023 13.7182 9.03376 14.5127L10.7522 15.0855C10.8056 15.1033 10.8586 15.1209 10.9113 15.1383C11.6824 15.3939 12.368 15.621 12.8735 16.1265C13.379 16.632 13.6062 17.3176 13.8617 18.0887C13.8791 18.1414 13.8967 18.1944 13.9145 18.2478L14.4873 19.9663C15.2818 22.3498 15.8465 24.037 16.3829 25.1398C16.9603 26.3265 17.2732 26.3421 17.3333 26.3421C17.3935 26.3421 17.7064 26.3265 18.2837 25.1398C18.8202 24.037 19.3849 22.3498 20.1794 19.9663L25.1197 5.14518C25.4065 4.28501 25.5828 3.74778 25.6502 3.36888C25.6516 3.36099 25.6529 3.35331 25.6542 3.34585C25.6467 3.34711 25.639 3.34843 25.6311 3.34984ZM25.8901 3.32672C25.8899 3.32691 25.8866 3.32664 25.8808 3.32537C25.8874 3.32591 25.8903 3.32654 25.8901 3.32672ZM25.6746 3.11914C25.6734 3.1134 25.6731 3.11011 25.6733 3.10991C25.6735 3.1097 25.6741 3.11256 25.6746 3.11914ZM25.2808 1.38075C25.8318 1.28273 26.5864 1.25355 27.1664 1.8336C27.7465 2.41366 27.7173 3.16817 27.6193 3.71916C27.5229 4.2606 27.2965 4.93974 27.041 5.70604L27.0171 5.77764L22.0767 20.5987L22.0497 20.6799C21.2882 22.9646 20.6834 24.7788 20.0822 26.0147C19.5148 27.1811 18.7147 28.3421 17.3333 28.3421C15.952 28.3421 15.1519 27.1811 14.5845 26.0147C13.9832 24.7787 13.3785 22.9645 12.6169 20.6797L12.5899 20.5987L12.0171 18.8803C11.675 17.854 11.587 17.6684 11.4593 17.5407C11.3316 17.413 11.146 17.325 10.1197 16.9829L8.4013 16.4101L8.32023 16.3831C6.03551 15.6215 4.22125 15.0168 2.98534 14.4155C1.81889 13.8481 0.65789 13.0481 0.65789 11.6667C0.65789 10.2853 1.81889 9.48526 2.98534 8.91781C4.22126 8.31656 6.03551 7.71183 8.32024 6.95028L8.40131 6.92326L23.2224 1.9829L23.294 1.95903C24.0603 1.70352 24.7394 1.47707 25.2808 1.38075Z" fill="black"/>
<path d="M23.8548 3.88027L24.0129 4.35461L23.8548 3.88027ZM25.6311 3.34984L25.7187 3.84211L25.7187 3.84211L25.6311 3.34984ZM9.03376 8.82063L8.87565 8.34628H8.87565L9.03376 8.82063ZM3.86026 10.7163L4.07899 11.1659L3.86026 10.7163ZM3.86026 12.6171L4.07899 12.1674H4.07899L3.86026 12.6171ZM9.03376 14.5127L9.19187 14.0384L9.03376 14.5127ZM10.9113 15.1383L10.754 15.613L10.9113 15.1383ZM13.8617 18.0887L13.387 18.246L13.387 18.246L13.8617 18.0887ZM13.9145 18.2478L13.4401 18.4059L13.4401 18.4059L13.9145 18.2478ZM14.4873 19.9663L14.0129 20.1244L14.4873 19.9663ZM16.3829 25.1398L15.9333 25.3585L16.3829 25.1398ZM18.2837 25.1398L17.8341 24.921L17.8341 24.921L18.2837 25.1398ZM20.1794 19.9663L19.705 19.8081L20.1794 19.9663ZM25.1197 5.14518L25.5941 5.3033V5.3033L25.1197 5.14518ZM25.6502 3.36888L26.1424 3.45645L26.1425 3.45639L25.6502 3.36888ZM25.6542 3.34585L26.1472 3.42886L26.2638 2.73609L25.5711 2.8528L25.6542 3.34585ZM25.8808 3.32537L25.9216 2.82703L25.7733 3.81366L25.8808 3.32537ZM25.6746 3.11914L25.1863 3.22666L26.173 3.07838L25.6746 3.11914ZM25.6733 3.10991L26.0473 3.44177L26.0475 3.44155L25.6733 3.10991ZM27.1664 1.8336L27.52 1.48005V1.48005L27.1664 1.8336ZM25.2808 1.38075L25.1933 0.888478L25.2808 1.38075ZM27.6193 3.71916L27.127 3.63159L27.127 3.63159L27.6193 3.71916ZM27.041 5.70604L26.5667 5.54788L26.5666 5.5479L27.041 5.70604ZM27.0171 5.77764L26.5428 5.6195L26.5428 5.61952L27.0171 5.77764ZM22.0767 20.5987L21.6024 20.4406L21.6024 20.4406L22.0767 20.5987ZM22.0497 20.6799L21.5753 20.5218V20.5218L22.0497 20.6799ZM20.0822 26.0147L19.6326 25.7959L19.6326 25.7959L20.0822 26.0147ZM14.5845 26.0147L14.1348 26.2334L14.5845 26.0147ZM12.6169 20.6797L12.1426 20.8378L12.1426 20.8378L12.6169 20.6797ZM12.5899 20.5987L13.0643 20.4406L13.0643 20.4406L12.5899 20.5987ZM12.0171 18.8803L11.5428 19.0384L12.0171 18.8803ZM11.4593 17.5407L11.1057 17.8943L11.1058 17.8943L11.4593 17.5407ZM10.1197 16.9829L10.2779 16.5086H10.2779L10.1197 16.9829ZM8.4013 16.4101L8.55942 15.9357L8.55941 15.9357L8.4013 16.4101ZM8.32023 16.3831L8.16212 16.8574L8.16212 16.8574L8.32023 16.3831ZM2.98534 14.4155L3.20407 13.9659H3.20407L2.98534 14.4155ZM2.98534 8.91781L2.76661 8.46819L2.76661 8.46819L2.98534 8.91781ZM8.32024 6.95028L8.47835 7.42462H8.47835L8.32024 6.95028ZM8.40131 6.92326L8.55942 7.3976L8.55942 7.3976L8.40131 6.92326ZM23.2224 1.9829L23.3805 2.45725L23.3805 2.45723L23.2224 1.9829ZM23.294 1.95903L23.4521 2.43336L23.4521 2.43336L23.294 1.95903ZM24.0129 4.35461C24.8901 4.06224 25.3848 3.9015 25.7187 3.84211L25.5436 2.85756C25.1196 2.93298 24.5399 3.12485 23.6967 3.40593L24.0129 4.35461ZM9.19188 9.29497L24.0129 4.35461L23.6967 3.40593L8.87565 8.34628L9.19188 9.29497ZM4.07899 11.1659C5.14472 10.6475 6.79297 10.0946 9.19188 9.29497L8.87565 8.34628C6.5075 9.13567 4.78124 9.71222 3.64153 10.2667L4.07899 11.1659ZM3.15789 11.6667C3.15789 11.7004 3.15169 11.74 3.13865 11.7705C3.12963 11.7916 3.1298 11.7783 3.17399 11.7325C3.26766 11.6353 3.50869 11.4433 4.07899 11.1659L3.64153 10.2667C3.02507 10.5666 2.66492 10.8197 2.45409 11.0384C2.34603 11.1505 2.26813 11.2628 2.2191 11.3775C2.16604 11.5017 2.15789 11.6029 2.15789 11.6667H3.15789ZM4.07899 12.1674C3.50869 11.89 3.26765 11.698 3.17399 11.6009C3.1298 11.5551 3.12963 11.5418 3.13865 11.5629C3.15169 11.5934 3.15789 11.633 3.15789 11.6667H2.15789C2.15789 11.7304 2.16604 11.8317 2.2191 11.9558C2.26813 12.0706 2.34603 12.1829 2.45409 12.295C2.66492 12.5136 3.02507 12.7668 3.64153 13.0667L4.07899 12.1674ZM9.19187 14.0384C6.79296 13.2387 5.14471 12.6859 4.07899 12.1674L3.64153 13.0667C4.78124 13.6211 6.5075 14.1977 8.87564 14.9871L9.19187 14.0384ZM10.9103 14.6112L9.19187 14.0384L8.87564 14.9871L10.5941 15.5599L10.9103 14.6112ZM11.0685 14.6637C11.0158 14.6463 10.9632 14.6288 10.9103 14.6112L10.5941 15.5599C10.648 15.5778 10.7014 15.5956 10.754 15.613L11.0685 14.6637ZM13.2271 15.7729C12.6226 15.1685 11.8138 14.9106 11.0685 14.6637L10.754 15.613C11.5511 15.8771 12.1134 16.0735 12.52 16.48L13.2271 15.7729ZM14.3363 17.9315C14.0894 17.1862 13.8315 16.3774 13.2271 15.7729L12.52 16.48C12.9265 16.8866 13.1229 17.4489 13.387 18.246L14.3363 17.9315ZM14.3888 18.0897C14.3712 18.0368 14.3537 17.9842 14.3363 17.9315L13.387 18.246C13.4045 18.2986 13.4222 18.352 13.4401 18.4059L14.3888 18.0897ZM14.9616 19.8081L14.3888 18.0897L13.4401 18.4059L14.0129 20.1244L14.9616 19.8081ZM16.8326 24.921C16.3141 23.8553 15.7613 22.207 14.9616 19.8081L14.0129 20.1244C14.8023 22.4925 15.3789 24.2188 15.9333 25.3585L16.8326 24.921ZM17.3333 25.8421C17.367 25.8421 17.4066 25.8483 17.4371 25.8614C17.4582 25.8704 17.445 25.8702 17.3991 25.826C17.302 25.7324 17.11 25.4913 16.8326 24.921L15.9333 25.3585C16.2332 25.9749 16.4864 26.3351 16.705 26.5459C16.8171 26.654 16.9294 26.7319 17.0442 26.7809C17.1683 26.834 17.2696 26.8421 17.3333 26.8421V25.8421ZM17.8341 24.921C17.5567 25.4913 17.3647 25.7324 17.2675 25.826C17.2217 25.8702 17.2084 25.8704 17.2295 25.8614C17.2601 25.8483 17.2996 25.8421 17.3333 25.8421V26.8421C17.3971 26.8421 17.4984 26.834 17.6225 26.7809C17.7372 26.7319 17.8495 26.654 17.9616 26.5459C18.1803 26.3351 18.4335 25.9749 18.7333 25.3585L17.8341 24.921ZM19.705 19.8081C18.9054 22.2071 18.3526 23.8553 17.8341 24.921L18.7333 25.3585C19.2878 24.2188 19.8643 22.4925 20.6537 20.1244L19.705 19.8081ZM24.6454 4.98707L19.705 19.8081L20.6537 20.1244L25.5941 5.3033L24.6454 4.98707ZM25.1579 3.28131C25.0985 3.6152 24.9378 4.10995 24.6454 4.98707L25.5941 5.3033C25.8752 4.46007 26.067 3.88037 26.1424 3.45645L25.1579 3.28131ZM25.1611 3.26284C25.1601 3.26881 25.159 3.27498 25.1579 3.28136L26.1425 3.45639C26.1441 3.447 26.1457 3.43782 26.1472 3.42886L25.1611 3.26284ZM25.7187 3.84211C25.7251 3.84097 25.7313 3.8399 25.7372 3.8389L25.5711 2.8528C25.5621 2.85431 25.5529 2.8559 25.5436 2.85757L25.7187 3.84211ZM25.5584 2.95259C25.6205 2.89752 25.6814 2.87135 25.7099 2.86035C25.7427 2.84766 25.7704 2.84098 25.787 2.83748C25.82 2.83053 25.8465 2.82851 25.8584 2.82776C25.8841 2.82614 25.9042 2.82693 25.912 2.82728C25.9306 2.82812 25.945 2.82985 25.9518 2.83073C25.9675 2.83277 25.98 2.83521 25.9884 2.83708L25.7733 3.81366C25.7875 3.81679 25.8045 3.82001 25.8233 3.82245C25.8317 3.82353 25.8473 3.82537 25.8667 3.82625C25.875 3.82663 25.8954 3.82742 25.9214 3.82577C25.9334 3.82502 25.96 3.82299 25.993 3.81603C26 3.81455 26.1158 3.79483 26.2218 3.70086L25.5584 2.95259ZM25.8401 3.8237C25.8348 3.82327 25.823 3.8222 25.8071 3.81959C25.8017 3.8187 25.7826 3.81556 25.7584 3.80897C25.7532 3.80756 25.7133 3.79724 25.6668 3.77403C25.6583 3.76978 25.568 3.72804 25.4937 3.63144C25.4503 3.57499 25.3814 3.45862 25.391 3.29701C25.4011 3.12734 25.491 3.01237 25.5584 2.95259L26.2218 3.70086C26.2892 3.64106 26.3791 3.52608 26.3892 3.3564C26.3988 3.19478 26.3299 3.07839 26.2865 3.02193C26.2122 2.9253 26.1219 2.88352 26.1133 2.87924C26.0666 2.85596 26.0265 2.84556 26.0209 2.84405C25.996 2.83728 25.9759 2.83391 25.9689 2.83277C25.95 2.82966 25.9334 2.828 25.9216 2.82703L25.8401 3.8237ZM26.1629 3.01162C26.1648 3.02009 26.1672 3.03254 26.1693 3.04829C26.1702 3.05506 26.1719 3.06948 26.1727 3.08812C26.1731 3.09593 26.1739 3.11613 26.1722 3.14195C26.1715 3.15385 26.1694 3.1804 26.1624 3.21345C26.1589 3.23015 26.1522 3.25785 26.1395 3.29069C26.1284 3.31921 26.1022 3.37987 26.0473 3.44177L25.2993 2.77805C25.2055 2.88379 25.1856 2.99919 25.1841 3.00651C25.1771 3.03964 25.175 3.06628 25.1743 3.0783C25.1726 3.10437 25.1734 3.1249 25.1737 3.13314C25.1746 3.15264 25.1765 3.16827 25.1776 3.17661C25.18 3.19548 25.1832 3.21245 25.1863 3.22666L26.1629 3.01162ZM26.0475 3.44155C25.9884 3.50819 25.8749 3.59747 25.7068 3.60877C25.5458 3.6196 25.4289 3.55205 25.3712 3.50832C25.2732 3.43396 25.2308 3.3428 25.2264 3.33416C25.2029 3.28724 25.1925 3.24693 25.1911 3.24173C25.1844 3.21738 25.1813 3.19819 25.1804 3.19275C25.1778 3.17685 25.1767 3.16504 25.1763 3.1599L26.173 3.07838C26.172 3.06666 26.1704 3.05013 26.1673 3.03121C26.1661 3.02426 26.1627 3.00398 26.1559 2.97894C26.1544 2.9734 26.1439 2.93285 26.1203 2.88579C26.1159 2.87708 26.0735 2.78587 25.9754 2.71149C25.9177 2.66775 25.8008 2.6002 25.6398 2.61102C25.4717 2.62232 25.3582 2.71161 25.2991 2.77826L26.0475 3.44155ZM27.52 1.48005C26.758 0.718117 25.7828 0.783613 25.1933 0.888478L25.3684 1.87302C25.8809 1.78185 26.4147 1.78897 26.8129 2.18716L27.52 1.48005ZM28.1115 3.80673C28.2164 3.21724 28.2819 2.24198 27.52 1.48005L26.8129 2.18716C27.211 2.58534 27.2182 3.11909 27.127 3.63159L28.1115 3.80673ZM27.5153 5.8642C27.7663 5.11134 28.0073 4.39239 28.1115 3.80673L27.127 3.63159C27.0385 4.12882 26.8266 4.76814 26.5667 5.54788L27.5153 5.8642ZM27.4914 5.93578L27.5153 5.86418L26.5666 5.5479L26.5428 5.6195L27.4914 5.93578ZM22.5511 20.7568L27.4914 5.93575L26.5428 5.61952L21.6024 20.4406L22.5511 20.7568ZM22.524 20.838L22.5511 20.7568L21.6024 20.4406L21.5753 20.5218L22.524 20.838ZM20.5318 26.2334C21.1509 24.9607 21.7673 23.1084 22.524 20.838L21.5753 20.5218C20.809 22.8207 20.2159 24.5968 19.6326 25.7959L20.5318 26.2334ZM17.3333 28.8421C19.0463 28.8421 19.968 27.3924 20.5318 26.2334L19.6326 25.7959C19.0615 26.9698 18.3831 27.8421 17.3333 27.8421V28.8421ZM14.1348 26.2334C14.6987 27.3924 15.6204 28.8421 17.3333 28.8421V27.8421C16.2835 27.8421 15.6052 26.9698 15.0341 25.7959L14.1348 26.2334ZM12.1426 20.8378C12.8994 23.1083 13.5157 24.9607 14.1348 26.2334L15.0341 25.7959C14.4507 24.5968 13.8576 22.8206 13.0913 20.5216L12.1426 20.8378ZM12.1156 20.7568L12.1426 20.8378L13.0913 20.5216L13.0643 20.4406L12.1156 20.7568ZM11.5428 19.0384L12.1156 20.7568L13.0643 20.4406L12.4914 18.7222L11.5428 19.0384ZM11.1058 17.8943C11.106 17.8945 11.1293 17.9077 11.1974 18.0685C11.2693 18.2382 11.371 18.523 11.5428 19.0384L12.4914 18.7222C12.3211 18.2112 12.2078 17.8901 12.1182 17.6786C12.0248 17.458 11.9403 17.3146 11.8129 17.1872L11.1058 17.8943ZM9.96163 17.4572C10.477 17.629 10.7618 17.7307 10.9315 17.8026C11.0923 17.8707 11.1055 17.894 11.1057 17.8943L11.8129 17.1872C11.6854 17.0597 11.542 16.9752 11.3215 16.8818C11.1099 16.7922 10.7888 16.6789 10.2779 16.5086L9.96163 17.4572ZM8.24319 16.8844L9.96163 17.4572L10.2779 16.5086L8.55942 15.9357L8.24319 16.8844ZM8.16212 16.8574L8.2432 16.8844L8.55941 15.9357L8.47833 15.9087L8.16212 16.8574ZM2.76661 14.8652C4.03929 15.4843 5.89168 16.1006 8.16212 16.8574L8.47834 15.9087C6.17933 15.1424 4.40322 14.5493 3.20407 13.9659L2.76661 14.8652ZM0.15789 11.6667C0.15789 13.3796 1.60759 14.3013 2.76661 14.8652L3.20407 13.9659C2.03019 13.3949 1.15789 12.7165 1.15789 11.6667H0.15789ZM2.76661 8.46819C1.60759 9.03202 0.15789 9.95373 0.15789 11.6667H1.15789C1.15789 10.6169 2.03019 9.93849 3.20407 9.36742L2.76661 8.46819ZM8.16213 6.47594C5.89169 7.23273 4.0393 7.84905 2.76661 8.46819L3.20407 9.36742C4.40322 8.78407 6.17934 8.19093 8.47835 7.42462L8.16213 6.47594ZM8.2432 6.44892L8.16213 6.47594L8.47835 7.42462L8.55942 7.3976L8.2432 6.44892ZM23.0643 1.50856L8.24319 6.44892L8.55942 7.3976L23.3805 2.45725L23.0643 1.50856ZM23.1358 1.4847L23.0642 1.50857L23.3805 2.45723L23.4521 2.43336L23.1358 1.4847ZM25.1933 0.888478C24.6076 0.992661 23.8887 1.23367 23.1358 1.4847L23.4521 2.43336C24.2319 2.17336 24.8712 1.96147 25.3684 1.87302L25.1933 0.888478Z" fill="black"/>
</svg>
